<svg width="24" height="24" viewBox="0 0 24 24" fill="none" xmlns="http://www.w3.org/2000/svg">
<path fill-rule="evenodd" clip-rule="evenodd" d="M16.687 15.9171C15.3399 17.2073 13.5125 18 11.5 18C7.35786 18 4 14.6421 4 10.5C4 6.35786 7.35786 3 11.5 3C15.6421 3 19 6.35786 19 10.5C19 12.5124 18.2074 14.3397 16.9174 15.6867C16.8738 15.718 16.8321 15.7533 16.7929 15.7925C16.7537 15.8318 16.7184 15.8735 16.687 15.9171ZM17.4735 17.8874C15.8416 19.2086 13.7632 20 11.5 20C6.25329 20 2 15.7467 2 10.5C2 5.25329 6.25329 1 11.5 1C16.7467 1 21 5.25329 21 10.5C21 12.7631 20.2087 14.8413 18.8877 16.4731L22.7071 20.2929C23.0976 20.6835 23.0976 21.3166 22.7071 21.7071C22.3165 22.0976 21.6834 22.0976 21.2929 21.7071L17.4735 17.8874Z" fill="black" fill-opacity="0.8"/>
</svg>
