<svg width="24" height="24" viewBox="0 0 24 24" fill="none" xmlns="http://www.w3.org/2000/svg">
<rect opacity="0.01" width="24" height="24" fill="#D8D8D8"/>
<path opacity="0.8" d="M11.3268 4.85063L11.9795 5.42024L12.6363 4.85535C14.7874 3.00538 17.9238 3.1242 19.908 5.19867C21.9004 7.28175 22.028 10.5988 20.2783 12.8382L12.6984 20.2404C12.3105 20.6192 11.6913 20.6199 11.3026 20.2419L3.7109 12.8595C1.97472 10.5978 2.10707 7.27956 4.09739 5.19867C6.08439 3.12127 9.21735 3.00987 11.3268 4.85063Z" stroke="black" stroke-width="2"/>
<mask id="mask0_2928_3253" style="mask-type:alpha" maskUnits="userSpaceOnUse" x="1" y="2" width="22" height="20">
<path d="M11.3268 4.85063L11.9795 5.42024L12.6363 4.85535C14.7874 3.00538 17.9238 3.1242 19.908 5.19867C21.9004 7.28175 22.028 10.5988 20.2783 12.8382L12.6984 20.2404C12.3105 20.6192 11.6913 20.6199 11.3026 20.2419L3.7109 12.8595C1.97472 10.5978 2.10707 7.27956 4.09739 5.19867C6.08439 3.12127 9.21735 3.00987 11.3268 4.85063Z" fill="white" stroke="white" stroke-width="2"/>
</mask>
<g mask="url(#mask0_2928_3253)">
</g>
</svg>
