<svg width="24" height="24" viewBox="0 0 24 24" fill="none" xmlns="http://www.w3.org/2000/svg">
<path d="M4.21106 21.8724C4.21106 23.3759 2 23.3759 2 21.8724C2 17.4503 4.74171 13.7357 8.54472 12.1437C7.12965 10.994 6.24523 9.22513 6.24523 7.2794C6.24523 3.83015 8.98693 1 12.5246 1C15.9739 1 18.7156 3.83015 18.7156 7.2794C18.7156 9.22513 17.8312 10.994 16.4161 12.1437C20.2191 13.7357 22.9608 17.4503 22.9608 21.8724C22.9608 23.3759 20.7498 23.3759 20.7498 21.8724C20.7498 17.3618 17.0352 13.6472 12.5246 13.6472C7.92563 13.6472 4.21106 17.3618 4.21106 21.8724ZM12.5246 3.21106C10.2251 3.21106 8.45628 5.06834 8.45628 7.2794C8.45628 9.49045 10.2251 11.2593 12.5246 11.2593C14.7357 11.2593 16.5045 9.49045 16.5045 7.2794C16.5045 5.06834 14.7357 3.21106 12.5246 3.21106Z" fill="black" fill-opacity="0.8"/>
</svg>
